HIERARCHY
ROOT Hips
{
    OFFSET 0.000000 0.000000 0.000000
    CHANNELS 6 Xposition Yposition Zposition Zrotation Xrotation Yrotation
    JOINT Spine
    {
        OFFSET -0.000000 14.517291 0.000000
        CHANNELS 3 Zrotation Xrotation Yrotation
        JOINT Spine1
        {
            OFFSET -0.000000 37.558300 0.000000
            CHANNELS 3 Zrotation Xrotation Yrotation
            JOINT Neck
            {
                OFFSET -0.000000 37.404057 3.400369
                CHANNELS 3 Zrotation Xrotation Yrotation
                JOINT Head
                {
                    OFFSET -0.000000 24.785618 -3.540803
                    CHANNELS 3 Zrotation Xrotation Yrotation
                    End Site
                    {
                        OFFSET -0.000000 35.408028 0.000000
                    }
                }
            }
            JOINT LeftShoulder
            {
                OFFSET 6.992933 33.973492 -0.192664
                CHANNELS 3 Zrotation Xrotation Yrotation
                JOINT LeftArm
                {
                    OFFSET 21.527611 0.000000 0.000000
                    CHANNELS 3 Zrotation Xrotation Yrotation
                    JOINT LeftForeArm
                    {
                        OFFSET 56.353916 0.000000 0.000000
                        CHANNELS 3 Zrotation Xrotation Yrotation
                        JOINT LeftHand
                        {
                            OFFSET 47.774071 0.000000 0.000000
                            CHANNELS 3 Zrotation Xrotation Yrotation
                            End Site
                            {
                                OFFSET 26.556021 0.000000 0.000000
                            }
                        }
                    }
                }
            }
            JOINT RightShoulder
            {
                OFFSET -7.065357 33.973492 -0.192664
                CHANNELS 3 Zrotation Xrotation Yrotation
                JOINT RightArm
                {
                    OFFSET -21.527611 0.000000 0.000000
                    CHANNELS 3 Zrotation Xrotation Yrotation
                    JOINT RightForeArm
                    {
                        OFFSET -56.353916 0.000000 0.000000
                        CHANNELS 3 Zrotation Xrotation Yrotation
                        JOINT RightHand
                        {
                            OFFSET -47.774071 0.000000 0.000000
                            CHANNELS 3 Zrotation Xrotation Yrotation
                            End Site
                            {
                                OFFSET -26.556021 0.000000 0.000000
                            }
                        }
                    }
                }
            }
        }
    }
    JOINT LeftUpLeg
    {
        OFFSET 17.704014 0.000000 0.000000
        CHANNELS 3 Zrotation Xrotation Yrotation
        JOINT LeftLeg
        {
            OFFSET -0.000000 -81.181816 0.000000
            CHANNELS 3 Zrotation Xrotation Yrotation
            JOINT LeftFoot
            {
                OFFSET -0.000000 -62.821102 0.000000
                CHANNELS 3 Zrotation Xrotation Yrotation
                JOINT LeftToeBase
                {
                    OFFSET -0.000000 -11.507608 26.556021
                    CHANNELS 3 Zrotation Xrotation Yrotation
                    End Site
                    {
                        OFFSET -0.000000 0.000000 7.081605
                    }
                }
            }
        }
    }
    JOINT RightUpLeg
    {
        OFFSET -17.704014 0.000000 0.000000
        CHANNELS 3 Zrotation Xrotation Yrotation
        JOINT RightLeg
        {
            OFFSET -0.000000 -81.181816 0.000000
            CHANNELS 3 Zrotation Xrotation Yrotation
            JOINT RightFoot
            {
                OFFSET -0.000000 -62.821102 0.000000
                CHANNELS 3 Zrotation Xrotation Yrotation
                JOINT RightToeBase
                {
                    OFFSET -0.000000 -11.507608 26.556021
                    CHANNELS 3 Zrotation Xrotation Yrotation
                    End Site
                    {
                        OFFSET -0.000000 0.000000 7.081605
                    }
                }
            }
        }
    }
}
MOTION
Frames:    12
Frame Time:    0.008333
14.788567    157.067230    -5.058127    0.749738    1.409287    -47.992081    3.053480    0.426500    1.656786    -0.789734    1.342768    0.564397    16.800579    7.032991    15.481612    -10.818472    -3.400425    12.842601    0.292213    9.152433    -11.959295    -34.836178    6.708785    -35.634045    33.517216    -43.626408    -43.365807    -16.962494    -28.705631    -31.397255    -4.546181    5.606574    -3.008923    36.488930    10.700188    74.235886    6.226504    -8.921530    94.999985    8.712838    -14.156805    19.056822    21.488575    -20.154417    4.113074    -16.756145    22.292248    1.216897    -5.643163    -3.406445    46.352325    0.000000    0.000000    0.000000    -17.806763    -2.677303    -8.495862    5.346213    18.478996    -3.613729    0.986123    -13.301017    -11.764504    0.000000    0.000000    0.000000    
14.777944    157.048782    -5.070491    0.758692    1.400742    -48.045349    3.052535    0.434539    1.673391    -0.820025    1.337835    0.570336    16.821163    7.055034    15.489432    -10.850366    -3.424047    12.844790    0.296550    9.151536    -11.943195    -34.840103    6.705125    -35.604244    33.555809    -43.637924    -43.337845    -16.955814    -28.714705    -31.399624    -4.535370    5.622306    -3.003119    36.497940    10.687112    74.234726    6.230330    -8.929669    94.996300    8.693686    -14.172141    19.048210    21.506573    -20.152493    4.156437    -16.773697    22.339018    1.228441    -5.635428    -3.434467    46.363770    0.000000    0.000000    0.000000    -17.846163    -2.720075    -8.617031    5.298125    18.548048    -3.527120    0.969291    -13.238465    -11.911584    0.000000    0.000000    0.000000    
14.762822    157.028442    -5.076615    0.763255    1.386196    -48.089458    3.042775    0.438468    1.685830    -0.828818    1.347329    0.574640    16.801054    7.062801    15.489958    -10.840252    -3.443269    12.848230    0.286639    9.157821    -11.927066    -34.838253    6.684083    -35.578865    33.582924    -43.644585    -43.322044    -16.928221    -28.727583    -31.376114    -4.547853    5.633268    -3.004490    36.510616    10.684804    74.243599    6.228303    -8.949609    94.984833    8.650895    -14.198142    19.011436    21.517796    -20.141886    4.174960    -16.797249    22.371058    1.250512    -5.622772    -3.463463    46.377476    0.000000    0.000000    0.000000    -17.890924    -2.751305    -8.765774    5.303792    18.634701    -3.575141    0.933467    -13.199077    -12.041726    0.000000    0.000000    0.000000    
14.749784    157.008774    -5.080351    0.771968    1.369605    -48.129662    3.041344    0.444903    1.696412    -0.860412    1.348817    0.578685    16.817219    7.085673    15.493690    -10.871366    -3.464829    12.846966    0.289420    9.155023    -11.915274    -34.856670    6.638203    -35.547943    33.584789    -43.625290    -43.319206    -16.944809    -28.699430    -31.381489    -4.549181    5.634019    -3.000476    36.531425    10.689546    74.231071    6.243224    -8.949795    94.978630    8.614489    -14.220362    18.997211    21.525299    -20.131744    4.177479    -16.831106    22.395962    1.284863    -5.618762    -3.494891    46.387604    0.000000    0.000000    0.000000    -17.946089    -2.776409    -8.922232    5.319421    18.706905    -3.628944    0.841550    -13.169108    -12.086463    0.000000    0.000000    0.000000    
14.736056    156.990570    -5.086082    0.779353    1.355040    -48.168209    3.040983    0.454855    1.705255    -0.887154    1.342344    0.581952    16.807119    7.115709    15.489455    -10.872963    -3.499325    12.844573    0.284703    9.158277    -11.899319    -34.857170    6.606398    -35.520672    33.601192    -43.613476    -43.295441    -16.932371    -28.687685    -31.393362    -4.543009    5.652649    -3.001449    36.518452    10.691916    74.241814    6.256356    -8.976275    94.968307    8.618390    -14.258774    18.991400    21.533674    -20.123980    4.199919    -16.847250    22.428568    1.301529    -5.633862    -3.535692    46.402760    0.000000    0.000000    0.000000    -17.999987    -2.797950    -9.126958    5.322914    18.767187    -3.679435    0.843840    -13.109994    -12.073614    0.000000    0.000000    0.000000    
14.721402    156.970978    -5.090536    0.786248    1.343295    -48.200588    3.043777    0.459696    1.710524    -0.911665    1.339907    0.584001    16.801874    7.134794    15.498299    -10.880933    -3.508521    12.855011    0.276205    9.154379    -11.893826    -34.869888    6.555722    -35.479000    33.600445    -43.592461    -43.296959    -16.941090    -28.661512    -31.380993    -4.545651    5.654459    -2.992201    36.526264    10.699558    74.230698    6.274437    -8.987488    94.960983    8.616632    -14.287623    18.997257    21.547148    -20.115999    4.206280    -16.883144    22.451490    1.344008    -5.618943    -3.555385    46.392639    0.000000    0.000000    0.000000    -18.059612    -2.811657    -9.322555    5.344687    18.814524    -3.733295    0.835257    -13.035297    -12.022609    0.000000    0.000000    0.000000    
14.704338    156.954239    -5.092403    0.789604    1.334042    -48.225052    3.048164    0.467353    1.713359    -0.929894    1.332184    0.585156    16.798368    7.153506    15.495800    -10.892313    -3.514930    12.853070    0.267331    9.163015    -11.881771    -34.885643    6.501442    -35.458355    33.524441    -43.643726    -43.305859    -16.981956    -28.716175    -31.547827    -4.548561    5.651868    -2.993226    36.536587    10.712805    74.211586    6.263987    -8.989738    94.943871    8.711553    -14.260788    19.001865    21.559605    -20.111139    4.223253    -16.900438    22.485126    1.359843    -5.623831    -3.595405    46.390705    0.000000    0.000000    0.000000    -18.112288    -2.815918    -9.505148    5.371836    18.851273    -3.831167    0.859841    -12.962838    -11.980291    0.000000    0.000000    0.000000    
14.683303    156.939087    -5.095340    0.799221    1.326597    -48.251835    3.047353    0.461584    1.717578    -0.942533    1.331337    0.586667    16.783745    7.164927    15.500639    -10.890504    -3.504039    12.862485    0.249971    9.158639    -11.872289    -34.902672    6.429463    -35.419693    33.480621    -43.604065    -43.328110    -16.961704    -28.682859    -31.550739    -4.553968    5.655935    -2.988787    36.538479    10.718444    74.204399    6.262493    -8.990461    94.932167    8.746410    -14.254061    18.985697    21.572218    -20.108852    4.256243    -16.917953    22.515078    1.390618    -5.622232    -3.610858    46.362183    0.000000    0.000000    0.000000    -18.162603    -2.836452    -9.702049    5.382128    18.917843    -3.941944    0.853163    -12.918529    -11.911988    0.000000    0.000000    0.000000    
14.662997    156.924179    -5.097528    0.808658    1.322092    -48.279800    3.049813    0.456954    1.722274    -0.957911    1.330780    0.588383    16.786982    7.179591    15.505220    -10.912615    -3.500110    12.865878    0.239960    9.152122    -11.857723    -34.924366    6.369753    -35.386864    33.443878    -43.584751    -43.351383    -16.957987    -28.667908    -31.547056    -4.559791    5.664826    -2.985079    36.536392    10.721343    74.197403    6.256742    -8.990068    94.929344    8.781779    -14.239860    19.004965    21.588320    -20.110125    4.285694    -16.937490    22.552946    1.380321    -5.624774    -3.643594    46.382137    0.000000    0.000000    0.000000    -18.213135    -2.859696    -9.889771    5.395809    18.993296    -4.011425    0.778700    -12.866016    -11.979739    0.000000    0.000000    0.000000    
14.641399    156.908691    -5.098729    0.823438    1.318674    -48.300201    3.500813    -0.138306    1.292022    -1.348837    2.626935    0.458953    15.769524    6.437497    15.861047    -10.017528    -3.582628    13.363017    0.162895    8.394920    -10.800409    -34.158657    7.559078    -35.695477    34.733063    -44.271828    -42.008808    -17.211679    -29.346338    -31.713106    -5.392783    5.280123    -2.748372    36.911285    10.832541    75.031120    6.021065    -9.392812    94.642242    8.868397    -14.338954    19.001320    21.600086    -20.113922    4.315631    -16.952831    22.580925    1.386416    -5.635368    -3.677772    46.373333    0.000000    0.000000    0.000000    -18.261732    -2.895657    -10.107196    5.377535    19.098215    -4.070374    0.828024    -12.821859    -12.045071    0.000000    0.000000    0.000000    
14.620766    156.889877    -5.100539    0.837862    1.308656    -48.326206    3.501737    -0.148454    1.297653    -1.365466    2.643296    0.461227    15.750496    6.444983    15.864000    -10.023946    -3.597907    13.366568    0.151040    8.371644    -10.781652    -34.155094    7.557236    -35.669479    34.768631    -44.289524    -41.963585    -17.217537    -29.365088    -31.729805    -5.416595    5.285843    -2.750497    36.902287    10.837954    75.047073    5.999372    -9.413011    94.637390    8.909143    -14.326967    19.024288    21.609135    -20.112074    4.345554    -16.972721    22.611446    1.388015    -5.629138    -3.703757    46.370243    0.000000    0.000000    0.000000    -18.320147    -2.929627    -10.303126    5.373668    19.200687    -4.112645    0.874282    -12.810102    -12.035553    0.000000    0.000000    0.000000    
14.598232    156.871277    -5.101142    0.851675    1.290404    -48.349461    3.501221    -0.153081    1.293789    -1.391334    2.660404    0.460715    15.743125    6.449047    15.882662    -10.038701    -3.599964    13.384668    0.143928    8.355485    -10.746787    -34.158752    7.534805    -35.650219    34.796707    -44.288074    -41.931419    -17.212189    -29.363695    -31.735098    -5.437150    5.274550    -2.733849    36.904106    10.848312    75.044220    5.991799    -9.424348    94.648140    8.951844    -14.324544    19.021275    21.608637    -20.105461    4.382410    -16.983465    22.645958    1.370586    -5.624544    -3.729093    46.374069    0.000000    0.000000    0.000000    -18.386349    -2.957163    -10.500610    5.378287    19.295107    -4.137958    0.853594    -12.727904    -12.083917    0.000000    0.000000    0.000000    
